<svg xmlns="http://www.w3.org/2000/svg" width="512" height="512" viewBox="0 0 512 512" version="1.1">
	<path d="M 93 150.461 C 93 155.464, 92.730 155.313, 106.701 158.130 L 112.902 159.380 118.473 175.440 C 121.537 184.273, 138.329 233.125, 155.789 284 L 187.534 376.500 192.431 376.500 L 197.327 376.500 226.913 299.770 C 243.186 257.568, 256.725 223.036, 257 223.031 C 257.275 223.026, 270.524 257.668, 286.441 300.011 L 315.382 377 320.070 377 L 324.758 377 337.406 339.750 C 344.363 319.262, 360.954 270.329, 374.277 231.009 L 398.500 159.519 408 157.449 L 417.500 155.379 417.805 150.690 L 418.110 146 380.555 146 L 343 146 343 150.421 C 343 155.633, 341.594 155.127, 363 157.624 C 370.975 158.554, 377.649 159.432, 377.832 159.573 C 378.015 159.715, 366.789 195.196, 352.886 238.419 C 338.983 281.643, 327.296 316.669, 326.915 316.254 C 326.533 315.839, 313.284 280.940, 297.472 238.699 L 268.722 161.899 264.673 162.199 L 260.623 162.500 230.646 239.784 C 214.158 282.290, 200.358 316.715, 199.979 316.284 C 199.057 315.234, 146.696 159.948, 147.147 159.599 C 147.341 159.449, 153.800 158.542, 161.500 157.584 C 181.178 155.136, 180 155.594, 180 150.392 L 180 146 136.500 146 L 93 146 93 150.461" stroke="none" fill="black" fill-rule="evenodd"/>
</svg>